<?xml version="1.0" encoding="UTF-8"?>
<svg id="Calque_1" xmlns="http://www.w3.org/2000/svg" viewBox="0 0 24 24" fill="currentColor">
  <path d="M12,1C5.93,1,1,5.93,1,12s4.93,11,11,11,11-4.93,11-11S18.07,1,12,1ZM12,21c-4.96,0-9-4.04-9-9S7.04,3,12,3s9,4.04,9,9-4.04,9-9,9Z"/>
  <path d="M15.71,8.29c-.39-.39-1.02-.39-1.41,0l-2.29,2.29-2.29-2.29c-.39-.39-1.02-.39-1.41,0s-.39,1.02,0,1.41l2.29,2.29-2.29,2.29c-.39.39-.39,1.02,0,1.41.2.2.45.29.71.29s.51-.1.71-.29l2.29-2.29,2.29,2.29c.2.2.45.29.71.29s.51-.1.71-.29c.39-.39.39-1.02,0-1.41l-2.29-2.29,2.29-2.29c.39-.39.39-1.02,0-1.41Z"/>
</svg>